<?xml version="1.0" encoding="utf-8"?>
<!-- Generator: Adobe Illustrator 19.2.0, SVG Export Plug-In . SVG Version: 6.00 Build 0)  -->
<svg version="1.1" id="Calque_1" xmlns="http://www.w3.org/2000/svg" xmlns:xlink="http://www.w3.org/1999/xlink" x="0px" y="0px"
	 viewBox="0 0 595.3 363.5" style="enable-background:new 0 0 595.3 363.5;" xml:space="preserve">
<style type="text/css">
	.st0{fill:#C1A274;}
	.st1{fill:#C2A476;}
</style>
<g>
	<path class="st0" d="M365.2,183.6c-7.4,4.6-8.1,9.3-0.4,14.2c2.4,38.1,0.3,113.3,5.7,105.8c2.2,2.6,4.4,5.2,6.5,7.7
		c-4.3,9-8.3,21.4-19.6,19.3c-11.1-2.1-6.5-14.9-6.5-23c-0.3-80-0.3-160.1,0-240.1c0-6.9-3.2-15.6,10-22.1
		C368.6,92.4,361.2,138.3,365.2,183.6z"/>
	<path class="st0" d="M318.8,315.2C284,229.3,249.2,143.5,214.1,57.7c-1.9-4.7-5.8-11.2-9.8-12c-8.7-1.8-9.9,7.5-12.2,13.1
		c-17.8,43.4-34.4,87.2-53.3,130.1c-4.4,10.1-1.3,33.5-25.8,23.7c-24.7-9.9-8.8-25.3-4.8-38.4c5.7-18.4,17.3-35.1,19.1-56.3
		c-4.9,1.4-8.3,1.4-8.8,2.5c-27,64.9-53.8,129.8-80.5,194.8c-2.2,5.2-3.5,12.4,2.5,14.4c4.2,1.4,10.6-1.6,15.3-4.1
		c32.5-17.4,65.3-34.3,97-53.1c16.6-9.8,30.4-9.1,46.7,0.1c34.1,19.2,68.9,36.9,103.5,55.2c4.9,2.6,10.4,5.9,15.6,2.3
		C324.5,326,320.8,320.1,318.8,315.2z M53.2,314.2c8-21.2,12.2-33.5,17.1-45.5c24.7-60.3,31.6-61.5,86.3-12.7
		C124.3,274.1,92.9,291.8,53.2,314.2z M166.4,241.4c-18.5-7.8-31.8-15.6-19.1-41.5c20.2-41.4,35.4-85.3,55.9-136.1
		c19.2,46.4,35.2,84.9,51,123.5c1.2,2.9,1.8,6.7,1,9.6C252.2,208.1,177.4,246,166.4,241.4z M193.6,255.7c-0.4-0.7-0.8-1.9-0.8-3.2
		c0.2-6.4,11.4-10.8,19.8-14.1c38-15,38.9-17.8,45.1-16.1c6.7,1.9,12,7,23.4,29.3c7.7,15.1,17.2,36.2,25.4,63.1
		C268.9,295,231.3,275.4,193.6,255.7z"/>
	<path class="st0" d="M483.6,158.3c27-34.4,50-71.9,77.3-111.9c-20.5,1.4-23.2,14.1-29.1,22.2c-23.5,32.6-46.9,65.4-68.4,99.3
		c-12.4,19.6-30.1,18.3-47.1,15c-17.4-3.4-9.5-20.2-9.9-31.1c-1-34-0.4-68.1-0.4-102.2c-3.3,0.1-6.6,0.2-9.9,0.3
		c0,34.3-1.5,68.8,0.5,103c1.5,25-5.9,36-31.6,30.8c-15.4,0.6-11.1,8.4-6,16.5c2,1.2,4,2.2,6,3c-0.1-1.7-0.3-3.5-0.4-5.2
		c23,0,46,0,73.1,0c-10.2,17.7-21.2,36-33.1,54.6c-12.2,19.1-24.4,37.3-36.4,54.4c1.4,3.3,3.8,5.4,8.6,4.5
		c25.3-35.3,50.5-70.6,78.2-109.3c32.1,45.7,62.5,89,92.9,132.3c3-2.2,5.9-4.4,8.9-6.6c-24.4-35.4-47.1-72-73.7-105.7
		C464.9,198.8,465.3,181.6,483.6,158.3z"/>
</g>
<path class="st1" d="M218.6,252.7"/>
</svg>
